<?xml version="1.0" encoding="utf-8"?>
<!-- Svg Vector Icons : http://www.onlinewebfonts.com/icon -->
<!DOCTYPE svg PUBLIC "-//W3C//DTD SVG 1.1//EN" "http://www.w3.org/Graphics/SVG/1.1/DTD/svg11.dtd">
<svg version="1.1" xmlns="http://www.w3.org/2000/svg" xmlns:xlink="http://www.w3.org/1999/xlink" x="0px" y="0px" viewBox="0 0 1000 1000" enable-background="new 0 0 1000 1000" xml:space="preserve">
<metadata> Svg Vector Icons : http://www.onlinewebfonts.com/icon </metadata>
<g><g transform="translate(0.000000,511.000000) scale(0.100000,-0.100000)"><path d="M353.5,4967.4c-102.3-53.3-227.9-202.4-242.9-285.5c-6.4-36.2-8.5-963-6.4-2058l6.4-1992l57.5-85.2c93.7-134.2,191.7-189.6,357.9-198.1c159.8-10.7,264.2,29.8,366.4,138.5c127.8,134.2,123.6,59.6,123.6,1913.1v1693.7H5000h3983.9V110v-3983.9h-1764H5453.8l-93.7-49c-332.4-176.8-332.4-649.8,2.1-820.2l93.8-46.9h2053.7c1977,0,2053.7,2.1,2130.4,40.5c91.6,46.9,176.8,134.2,225.8,230.1c32,61.8,34.1,473,34.1,4629.4c0,4471.8,0,4563.4-40.5,4642.2c-46.9,89.5-170.4,206.7-251.4,238.6c-32,10.6-1840.7,19.2-4614.5,19.2C530.4,5007.9,428.1,5007.9,353.5,4967.4z"/><path d="M5500.7,2924.3c-351.5-161.9-355.8-656.2-6.4-835.1c68.2-34.1,125.7-40.5,421.8-40.5c187.5,0,340.9-6.4,340.9-14.9c0-8.5-453.8-472.9-1009.8-1029C4188.3-56.2,4190.4-51.9,4190.4-230.9c0-238.6,230.1-468.7,468.7-468.7c179,0,174.7-2.1,1235.7,1056.7c556,556,1020.5,1009.8,1029,1009.8c8.5,0,14.9-153.4,14.9-338.7c0-187.5,8.5-364.3,19.2-392c10.7-29.8,53.3-89.5,91.6-132.1c223.7-257.8,641.2-191.7,771.2,121.4c51.1,119.3,51.1,1938.7,0,2058c-42.6,104.4-127.8,191.7-232.2,240.7c-78.8,36.2-155.5,40.5-1043.9,40.5C5656.2,2964.8,5579.5,2960.5,5500.7,2924.3z"/><path d="M377-712.3C281.1-755,191.6-838,140.5-938.2C102.1-1014.9,100-1087.3,100-2732c0-1009.8,8.5-1736.3,19.2-1766.1c32-81,149.1-204.5,238.6-251.4c78.8-38.4,140.6-40.5,1798.1-40.5c1646.8,0,1719.3,2.1,1796,40.5c42.6,23.4,104.4,68.2,136.4,102.3c127.8,134.2,123.6,59.6,123.6,1913.1s4.3,1776.8-123.6,1915.3c-32,34.1-95.9,78.8-142.7,100.1c-81,38.4-174.7,40.5-1789.6,38.4C679.5-680.4,440.9-684.6,377-712.3z M3285-2734.1v-1129.1l-1133.4-6.4l-1135.5-4.3V-2749c0,620,6.4,1133.4,14.9,1139.8c6.4,8.5,517.7,12.8,1133.4,10.7L3285-1605V-2734.1z"/></g></g>
</svg>