<?xml version="1.0" encoding="utf-8"?>
<!-- Svg Vector Icons : http://www.onlinewebfonts.com/icon -->
<!DOCTYPE svg PUBLIC "-//W3C//DTD SVG 1.1//EN" "http://www.w3.org/Graphics/SVG/1.1/DTD/svg11.dtd">
<svg version="1.1" xmlns="http://www.w3.org/2000/svg" xmlns:xlink="http://www.w3.org/1999/xlink" x="0px" y="0px" viewBox="0 0 1000 1000" enable-background="new 0 0 1000 1000" xml:space="preserve">
<metadata> Svg Vector Icons : http://www.onlinewebfonts.com/icon </metadata>
<g><g transform="translate(0.000000,511.000000) scale(0.100000,-0.100000)"><path d="M6872.6,4969.1c-304.1-161.6-357.2-561.4-104.2-771.9c125.5-99.9,185-108.4,893.1-108.4h657.1L6677,2447.1C5352.2,1118.1,5033.3,788.5,5012,720.5c-42.5-134-19.1-316.8,55.3-423.2c127.6-178.6,393.4-250.9,582.6-157.4c40.4,21.3,801.7,769.8,1690.5,1665c888.8,893.1,1622.4,1624.6,1633.1,1624.6c8.5,0,14.9-306.2,14.9-680.4c0-731.5,6.4-774,112.7-888.8c55.3-61.7,170.1-121.2,265.8-142.5c208.4-44.7,465.7,131.8,514.6,353c17,82.9,21.3,463.6,17,1358.8l-6.4,1243.9l-53.2,95.7c-29.8,51-95.7,123.3-144.6,159.5l-93.6,63.8l-1331.1,4.3C7085.2,5001,6930,4998.8,6872.6,4969.1z"/><path d="M363.7,3548.6c-114.8-53.2-199.9-146.7-240.3-265.8C106.4,3229.7,100,2192,100-604.2c0-3400.1,4.3-3823.3,34-3893.4c40.4-100,123.3-187.1,225.4-240.3c76.5-38.3,182.9-40.4,3936-40.4h3857.3l93.6,48.9c51,27.6,123.3,91.4,157.4,140.4l63.8,91.4v2035v2037.1l-57.4,82.9c-89.3,125.4-191.4,185-338.1,195.6c-236,17-431.7-114.8-484.8-325.3c-17-63.8-23.4-610.3-23.4-1741.5V-3864H4289H1014.4v3274.7v3274.7l1720.3,4.3l1720.3,6.4l93.6,63.8c202,142.5,261.5,412.5,134,616.7c-46.8,76.6-95.7,121.2-178.6,163.7l-112.7,59.5H2430.5H472.1L363.7,3548.6z"/></g></g>
</svg>